<svg width="24" height="25" viewBox="0 0 24 25" fill="none" xmlns="http://www.w3.org/2000/svg">
<g id="-9oVQB__google-icon 1" clip-path="url(#clip0_221_815)">
<path id="Vector" d="M24.0002 12.5522C24.0002 11.5454 23.9185 10.8107 23.7417 10.0488H12.2451V14.593H18.9934C18.8574 15.7223 18.1227 17.423 16.49 18.5658L16.4671 18.7179L20.1021 21.5339L20.354 21.559C22.6668 19.423 24.0002 16.2801 24.0002 12.5522Z" fill="#4285F4"/>
<path id="Vector_2" d="M12.2445 24.5253C15.5505 24.5253 18.326 23.4368 20.3533 21.5593L16.4893 18.566C15.4553 19.2871 14.0676 19.7905 12.2445 19.7905C9.0064 19.7905 6.25812 17.6545 5.27843 14.7021L5.13483 14.7143L1.35509 17.6395L1.30566 17.7769C3.31925 21.7769 7.45531 24.5253 12.2445 24.5253Z" fill="#34A853"/>
<path id="Vector_3" d="M5.27886 14.7016C5.02036 13.9397 4.87076 13.1233 4.87076 12.2798C4.87076 11.4363 5.02036 10.62 5.26526 9.85806L5.25841 9.6958L1.43131 6.72363L1.30609 6.78319C0.476196 8.44308 0 10.3071 0 12.2798C0 14.2526 0.476196 16.1165 1.30609 17.7764L5.27886 14.7016Z" fill="#FBBC05"/>
<path id="Vector_4" d="M12.2445 4.76982C14.5438 4.76982 16.0947 5.76301 16.9791 6.593L20.4349 3.21883C18.3125 1.24605 15.5505 0.0351562 12.2445 0.0351562C7.45531 0.0351562 3.31925 2.78343 1.30566 6.7834L5.26483 9.85828C6.25812 6.9059 9.0064 4.76982 12.2445 4.76982Z" fill="#EB4335"/>
</g>
<defs>
<clipPath id="clip0_221_815">
<rect width="24" height="24.56" fill="white"/>
</clipPath>
</defs>
</svg>
